<?xml version="1.0" encoding="UTF-8"?>
<svg version="1.1" xmlns="http://www.w3.org/2000/svg" width="512" height="512">
<path d="M0 0 C133.32 0 266.64 0 404 0 C404.99 3.96 405.98 7.92 407 12 C412.66428929 21.14010318 418.45367514 24.98938789 428.83984375 27.51953125 C429.55269531 27.67808594 430.26554687 27.83664063 431 28 C431.60370357 32.1454312 431.8733884 35.88184137 431 40 C428.6749755 42.09916497 426.36392603 43.22512347 423.55078125 44.5859375 C418.41574321 47.43262015 416.28984898 52.49971405 414.625 57.9375 C413.24156539 64.73495274 414.37512032 71.08862829 417.69921875 77.14453125 C421.24745662 82.20583152 425.31138397 84.72455359 431 87 C431 91.95 431 96.9 431 102 C429.618125 102.70125 428.23625 103.4025 426.8125 104.125 C421.59223881 107.03061708 418.6184405 110.00588507 415.75 115.3125 C413.31357502 124.04302285 413.70626148 131.21585685 418.125 139.1875 C421.35325352 144.08288145 425.87382144 146.43691072 431 149 C431 154.28 431 159.56 431 165 C429.80375 165.515625 428.6075 166.03125 427.375 166.5625 C421.96058084 169.26970958 418.59254348 173.11825466 415.6875 178.375 C413.40819941 187.07778406 413.7240125 194.13405882 418 202.125 C420.25464022 205.65340976 422.57845276 206.94371406 426.3125 208.75 C428.94921875 210.1484375 428.94921875 210.1484375 431 212 C431.8733884 216.11815863 431.60370357 219.8545688 431 224 C430.29875 224.14695312 429.5975 224.29390625 428.875 224.4453125 C419.68931229 226.61692889 413.19026626 230.27932412 407.9609375 238.28125 C405.88021157 242.00287361 404.97640865 245.11378584 405.08984375 249.375 C404 253 404 253 402.25927734 254.3203125 C399.49246757 255.70057523 396.68690044 256.85952253 393.8125 258 C391.99927017 258.76267889 390.18607239 259.52543492 388.37342834 260.289505 C386.23739795 261.18455663 384.09615893 262.0662528 381.95410156 262.94677734 C376.30999811 265.27526124 370.69828898 267.67823307 365.0859375 270.08203125 C355.87665546 274.02359511 346.66212191 277.95244093 337.44140625 281.8671875 C323.66606593 287.71644115 309.89422573 293.57386728 296.125 299.4375 C295.01625519 299.909599 293.90751038 300.381698 292.76516724 300.86810303 C268.50358844 311.19977467 244.26650818 321.58838385 220.03222656 331.98388672 C209.52190442 336.49213986 199.00987986 340.99642065 188.49798584 345.50100708 C182.6652544 348.00050923 176.83263275 350.50026756 171 353 C168.66666719 354.00000123 166.33333386 355.00000123 164 356 C162.845 356.495 161.69 356.99 160.5 357.5 C150.00000007 361.99999997 150.00000007 361.99999997 146.50067139 363.49971008 C144.16509799 364.50067156 141.82952671 365.50163796 139.49395752 366.50260925 C133.69491429 368.98793874 127.8958356 371.47318541 122.09667969 373.95825195 C111.18787716 378.63301977 100.27943876 383.3086326 89.37219238 387.98703003 C84.86269851 389.92125961 80.35303314 391.85508921 75.84333038 393.78883171 C72.77268756 395.10554784 69.70217362 396.42256261 66.63183594 397.73999023 C63.23917081 399.19570658 59.8461806 400.6506628 56.453125 402.10546875 C55.46805969 402.52837692 54.48299438 402.9512851 53.46807861 403.38700867 C50.64732075 404.59593721 47.82413316 405.79897943 45 407 C43.36242737 407.70051987 43.36242737 407.70051987 41.69177246 408.41519165 C40.06688904 409.10359634 40.06688904 409.10359634 38.40917969 409.8059082 C37.42197937 410.22580521 36.43477905 410.64570221 35.41766357 411.07832336 C33 412 33 412 31 412 C30.5875 411.113125 30.175 410.22625 29.75 409.3125 C25.90296651 402.03061518 21.57909186 398.97873261 14 396 C7.55323588 394.08939113 1.42997233 395.56980395 -5 397 C-5.72750788 395.59308393 -6.43140353 394.17393978 -7.125 392.75 C-7.51945312 391.96109375 -7.91390625 391.1721875 -8.3203125 390.359375 C-9 388 -9 388 -8.24609375 385.95703125 C-7.83488281 385.31121094 -7.42367187 384.66539062 -7 384 C-6.31148322 382.64635003 -5.62397813 381.29218498 -4.9375 379.9375 C-4.59589844 379.26589844 -4.25429687 378.59429687 -3.90234375 377.90234375 C-0.87703879 371.52431986 -0.92214821 363.38430621 -3.0625 356.6875 C-6.07119388 350.01845964 -10.79925145 346.18307224 -17.5625 343.625 C-20.70531808 342.57882905 -23.11110765 341.99393958 -26.4375 341.8125 C-29 341 -29 341 -30.28125 339.15625 C-32.036092 335.59913783 -33 332.79994298 -33 328.8125 C-31.80889693 325.46252262 -29.98285657 322.94424157 -28 320 C-25.0012652 311.75347931 -25.66916175 305.55186055 -28.80078125 297.51953125 C-30.36478976 294.23358503 -32.14377928 292.24417342 -35 290 C-36.2684375 288.9171875 -36.2684375 288.9171875 -37.5625 287.8125 C-41.13202951 285.93038444 -43.11654169 285.75665839 -47.0625 285.4375 C-50.92700044 284.91774154 -52.45624487 284.66422783 -54.95703125 281.609375 C-58.42064033 274.47224114 -58.42064033 274.47224114 -57.265625 270.4296875 C-56.03026036 268.05809242 -54.71418763 265.7517102 -53.375 263.4375 C-50.11755177 256.97079065 -49.92373047 250.65102191 -51.546875 243.63671875 C-54.01171116 236.36545207 -57.91028187 232.57660478 -64.48828125 229.04296875 C-67.1357811 227.94361811 -69.47997254 227.51410643 -72.3125 227.125 C-76.56637346 226.4369707 -76.56637346 226.4369707 -78.51953125 224.46875 C-80.51116753 221.14701033 -81 218.88148047 -81 215 C-79.42578125 213.7265625 -79.42578125 213.7265625 -77.3125 212.625 C-70.88423332 208.87707066 -67.57847858 204.29656914 -65.5 197.22265625 C-64.39889215 192.32788775 -64.91690849 188.09588962 -66.01953125 183.28125 C-66.20233643 182.47751953 -66.3851416 181.67378906 -66.57348633 180.84570312 C-66.71423584 180.23662109 -66.85498535 179.62753906 -67 179 C-66.39526855 178.74831055 -65.79053711 178.49662109 -65.16748047 178.23730469 C-62.40055238 177.08137187 -59.63779224 175.91578138 -56.875 174.75 C-55.92367187 174.35425781 -54.97234375 173.95851562 -53.9921875 173.55078125 C-48.94789146 171.4139614 -44.51271148 169.14159265 -40 166 C-38.27569862 165.19266814 -36.52591148 164.43639523 -34.75 163.75 C-33.89921875 163.41484375 -33.0484375 163.0796875 -32.171875 162.734375 C-30 162 -30 162 -28 162 C-28 158.04 -28 154.08 -28 150 C-26.80375 149.484375 -25.6075 148.96875 -24.375 148.4375 C-18.47566879 145.46173116 -14.72255083 141.18997914 -12.125 135.125 C-9.77851989 127.81859486 -10.53963761 121.35383507 -13.59765625 114.3671875 C-16.97968319 108.65825066 -21.84449465 105.22668715 -28 103 C-28.52426435 97.55023969 -28.79405046 92.43411401 -28 87 C-25.97805627 84.61243245 -24.18542518 83.65252387 -21.39453125 82.28125 C-16.53127943 79.67905327 -13.90557834 74.93464464 -11.625 70.0625 C-9.98823765 62.0423645 -10.77225043 55.13653548 -15 48 C-18.92960912 43.55355294 -22.4631059 41.21475764 -28 39 C-28 35.37 -28 31.74 -28 28 C-26.74896484 27.70609375 -26.74896484 27.70609375 -25.47265625 27.40625 C-16.54815602 25.03456151 -9.54058843 21.88749276 -4.6328125 13.7265625 C-2.53958109 9.24979752 -1.36895719 4.79135017 0 0 Z " fill="#FE7057" transform="translate(81,50)"/>
<path d="M0 0 C108.9 0 217.8 0 330 0 C330 50.16 330 100.32 330 152 C221.1 152 112.2 152 0 152 C0 101.84 0 51.68 0 0 Z " fill="#FF7159" transform="translate(117,100)"/>
<path d="M0 0 C4.95 0 9.9 0 15 0 C20 11.75 20 11.75 20 14 C34.52 14 49.04 14 64 14 C61.525 8.06 61.525 8.06 59 2 C59 1.34 59 0.68 59 0 C62.63 0 66.26 0 70 0 C70.84026396 1.76755526 71.67198722 3.53917263 72.5 5.3125 C73.19609375 6.79169922 73.19609375 6.79169922 73.90625 8.30078125 C75 11 75 11 75 14 C82.59 14 90.18 14 98 14 C97.175 12.246875 96.35 10.49375 95.5 8.6875 C93 3.375 93 3.375 93 0 C152.73 0 212.46 0 274 0 C271.14012645 2.14490517 269.38980503 3.42076731 266.27197266 4.71972656 C265.17913719 5.18004272 265.17913719 5.18004272 264.06422424 5.6496582 C263.27217087 5.97667725 262.48011749 6.30369629 261.6640625 6.640625 C260.81895615 6.99503662 259.97384979 7.34944824 259.10313416 7.71459961 C257.25629926 8.48845703 255.40840639 9.25979319 253.55960083 10.02893066 C249.51938519 11.71003951 245.4845048 13.403781 241.44929504 15.09686279 C239.29474628 16.00081171 237.1399453 16.90415967 234.98490906 17.8069458 C222.82270403 22.90441511 210.69224905 28.07589068 198.5625 33.25 C196.29535572 34.21653455 194.02818433 35.18300552 191.76098633 36.14941406 C188.32103771 37.61575771 184.88112157 39.08217722 181.44132996 40.54888916 C173.2277245 44.05106956 165.01266606 47.54982519 156.796875 51.046875 C128.67975882 63.01303147 128.67975882 63.01303147 100.58895874 75.04077148 C96.52719556 76.78436689 92.46323992 78.52284292 88.39897156 80.2605896 C84.56343373 81.90098171 80.72993783 83.54599782 76.8984375 85.19580078 C72.4650513 87.10413001 68.02745741 89.00237708 63.5871582 90.89456177 C61.87589762 91.62574739 60.1660692 92.36029486 58.45776367 93.09835815 C56.10054841 94.1161856 53.73853917 95.12196353 51.375 96.125 C50.67056763 96.43244644 49.96613525 96.73989288 49.24035645 97.05665588 C44.34212179 99.1140406 44.34212179 99.1140406 41 98 C39.58398438 95.38769531 39.58398438 95.38769531 38.09375 91.828125 C37.81664185 91.17485733 37.53953369 90.52158966 37.25402832 89.848526 C36.32573784 87.65319569 35.41306359 85.45170216 34.5 83.25 C33.8473842 81.69902907 33.19371488 80.14850107 32.5390625 78.59838867 C31.11779304 75.22803154 29.70307817 71.85502175 28.29296875 68.47998047 C25.46731565 61.71988336 22.615128 54.97104297 19.76330566 48.22195435 C17.7094532 43.36121973 15.65721072 38.49983756 13.61132812 33.63574219 C12.84518497 31.81569927 12.07891179 29.99571107 11.3125 28.17578125 C10.9465271 27.30621796 10.5805542 26.43665466 10.20349121 25.54074097 C7.55025177 19.25521107 4.83224254 13.00000486 2.03051758 6.77912903 C0 2.21589631 0 2.21589631 0 0 Z " fill="#FE7058" transform="translate(86,301)"/>
<path d="M0 0 C108.9 0 217.8 0 330 0 C330 50.16 330 100.32 330 152 C221.1 152 112.2 152 0 152 C0 101.84 0 51.68 0 0 Z M14 14 C14 54.92 14 95.84 14 138 C113.66 138 213.32 138 316 138 C316 97.08 316 56.16 316 14 C216.34 14 116.68 14 14 14 Z " fill="#FFCE5B" transform="translate(117,100)"/>
<path d="M0 0 C4.95 0 9.9 0 15 0 C18.07577857 7.07122772 21.14981468 14.14320974 24.22241211 21.21582031 C25.26232757 23.60891917 26.30267445 26.00183062 27.34350586 28.39453125 C33.02489655 41.45595774 38.68034549 54.52831234 44.26171875 67.6328125 C44.73922073 68.74727753 45.21672272 69.86174255 45.70869446 71.00997925 C46.14215683 72.03165192 46.5756192 73.05332458 47.0222168 74.10595703 C47.4054863 75.00573273 47.7887558 75.90550842 48.18363953 76.83255005 C49 79 49 79 49 81 C49.82757813 80.64099609 50.65515625 80.28199219 51.5078125 79.91210938 C70.803526 71.54577139 90.11982866 63.22875566 109.4552002 54.95446777 C131.98062296 45.31489931 154.4749954 35.60658238 176.94555664 25.83984375 C210.47964547 11.26550433 210.47964547 11.26550433 220.14941406 7.24804688 C222.17777522 6.35998742 224.17268103 5.39378044 226.13964844 4.37695312 C236.36170115 -0.66154491 245.18031049 -0.72116018 256.375 -0.375 C258.09370252 -0.34481886 259.81245695 -0.31745763 261.53125 -0.29296875 C265.68881323 -0.22771655 269.84381159 -0.12466647 274 0 C270.29957349 3.18366176 266.12340816 4.79947263 261.6640625 6.640625 C260.81895615 6.99503662 259.97384979 7.34944824 259.10313416 7.71459961 C257.25629926 8.48845703 255.40840639 9.25979319 253.55960083 10.02893066 C249.51938519 11.71003951 245.4845048 13.403781 241.44929504 15.09686279 C239.29474628 16.00081171 237.1399453 16.90415967 234.98490906 17.8069458 C222.82270403 22.90441511 210.69224905 28.07589068 198.5625 33.25 C196.29535572 34.21653455 194.02818433 35.18300552 191.76098633 36.14941406 C188.32103771 37.61575771 184.88112157 39.08217722 181.44132996 40.54888916 C173.2277245 44.05106956 165.01266606 47.54982519 156.796875 51.046875 C128.67975882 63.01303147 128.67975882 63.01303147 100.58895874 75.04077148 C96.52719556 76.78436689 92.46323992 78.52284292 88.39897156 80.2605896 C84.56343373 81.90098171 80.72993783 83.54599782 76.8984375 85.19580078 C72.4650513 87.10413001 68.02745741 89.00237708 63.5871582 90.89456177 C61.87589762 91.62574739 60.1660692 92.36029486 58.45776367 93.09835815 C56.10054841 94.1161856 53.73853917 95.12196353 51.375 96.125 C50.67056763 96.43244644 49.96613525 96.73989288 49.24035645 97.05665588 C44.34212179 99.1140406 44.34212179 99.1140406 41 98 C39.58398438 95.38769531 39.58398438 95.38769531 38.09375 91.828125 C37.81664185 91.17485733 37.53953369 90.52158966 37.25402832 89.848526 C36.32573784 87.65319569 35.41306359 85.45170216 34.5 83.25 C33.8473842 81.69902907 33.19371488 80.14850107 32.5390625 78.59838867 C31.11779304 75.22803154 29.70307817 71.85502175 28.29296875 68.47998047 C25.46731565 61.71988336 22.615128 54.97104297 19.76330566 48.22195435 C17.7094532 43.36121973 15.65721072 38.49983756 13.61132812 33.63574219 C12.84518497 31.81569927 12.07891179 29.99571107 11.3125 28.17578125 C10.9465271 27.30621796 10.5805542 26.43665466 10.20349121 25.54074097 C7.55025177 19.25521107 4.83224254 13.00000486 2.03051758 6.77912903 C0 2.21589631 0 2.21589631 0 0 Z " fill="#FECF5B" transform="translate(86,301)"/>
<path d="M0 0 C0 0.99 0 1.98 0 3 C0.825 3.185625 1.65 3.37125 2.5 3.5625 C8.61040466 6.07213049 13.39968767 10.16970778 16.5 16.0625 C19.0909103 22.85928262 19.38931268 30.77058794 17.1171875 37.6875 C13.96595352 43.86475337 9.33611864 48.43841255 3.0625 51.375 C2.381875 51.58125 1.70125 51.7875 1 52 C0.67 55.3 0.34 58.6 0 62 C1.423125 61.8453125 1.423125 61.8453125 2.875 61.6875 C9.25107931 61.73902387 14.60942137 64.91228183 19.3125 69.01953125 C24.97669942 74.96485821 28 80.73190974 28 89 C29.65 89 31.3 89 33 89 C34.98 93.62 36.96 98.24 39 103 C30.09 103 21.18 103 12 103 C11.75 93.875 11.75 93.875 11.70214844 91.03466797 C11.48428682 85.65119277 10.81120606 82.10535955 7 78 C-0.79796894 75.10832435 -0.79796894 75.10832435 -17 75 C-17 62.79 -17 50.58 -17 38 C-10.07 35.525 -10.07 35.525 -3 33 C0.28550288 29.75130404 0.28550288 29.75130404 0.4375 25.5625 C0.45683594 24.80066406 0.47617187 24.03882813 0.49609375 23.25390625 C-0.2009092 20.08720779 -1.46482361 18.98952585 -4 17 C-6.98108356 15.71035049 -6.98108356 15.71035049 -10.1875 14.8125 C-15.93055556 13.06944444 -15.93055556 13.06944444 -17 12 C-17.04063832 10.33382885 -17.042721 8.66611905 -17 7 C-15.06374902 6.01836578 -13.12595461 5.03977546 -11.1875 4.0625 C-10.10855469 3.51722656 -9.02960937 2.97195312 -7.91796875 2.41015625 C-2.93074792 0 -2.93074792 0 0 0 Z " fill="#E66751" transform="translate(53,212)"/>
<path d="M0 0 C47.52 0 95.04 0 144 0 C128.65604599 15.34395401 103.85615684 15.35034717 83.88562012 15.43005371 C78.4481408 15.42561672 73.01235023 15.3617239 67.57543945 15.28753662 C61.96963796 15.22425992 56.36390821 15.23067992 50.7578125 15.23046875 C39.8375623 15.22016957 28.91937085 15.13517844 18 15 C17.87761963 15.6384082 17.75523926 16.27681641 17.62915039 16.93457031 C17.31772095 17.95695801 17.31772095 17.95695801 17 19 C14.93359375 20.046875 14.93359375 20.046875 12.4375 20.75 C11.61121094 20.99234375 10.78492188 21.2346875 9.93359375 21.484375 C9.29550781 21.65453125 8.65742188 21.8246875 8 22 C6.65791246 18.89954577 5.32786246 15.79407011 4 12.6875 C3.6184375 11.80642578 3.236875 10.92535156 2.84375 10.01757812 C2.4828125 9.17001953 2.121875 8.32246094 1.75 7.44921875 C1.41484375 6.66893311 1.0796875 5.88864746 0.734375 5.0847168 C0 3 0 3 0 0 Z " fill="#E96852" transform="translate(179,301)"/>
<path d="M0 0 C2.62795065 0.02246762 5.25595262 0.03950821 7.88397217 0.05145264 C14.00774693 0.08816885 20.12882799 0.18580138 26.25143695 0.30764651 C33.24310291 0.44364646 40.23492532 0.50821247 47.22759295 0.56799173 C61.5645515 0.69209417 75.89942553 0.90196759 90.234375 1.171875 C75.01429678 16.39195322 50.39894513 16.3384018 30.58984375 16.34375 C21.92121425 16.32904158 13.25706495 16.21008183 4.59051144 16.03619623 C-2.33339775 15.8997735 -9.25748136 15.83551316 -16.18240893 15.77575827 C-30.37825332 15.65172451 -44.57184134 15.44191712 -58.765625 15.171875 C-44.28320338 0.68945338 -18.75541882 -0.48239844 0 0 Z " fill="#E96852" transform="translate(388.765625,299.828125)"/>
<path d="M0 0 C3.63 0 7.26 0 11 0 C11.33 6.93 11.66 13.86 12 21 C14.5059375 18.3084375 14.5059375 18.3084375 17.0625 15.5625 C17.89249512 14.6804187 17.89249512 14.6804187 18.73925781 13.78051758 C21.68160983 10.60800597 24.02879656 7.44041768 26.3125 3.75 C28.63644983 0.57317203 29.56631849 0.06749348 33.5390625 -0.55078125 C37.0734329 -0.56140561 40.4894026 -0.39439444 44 0 C41.61372466 4.4117393 38.61188473 7.77124524 35.1875 11.375 C34.114051 12.52684788 33.04112895 13.67918708 31.96875 14.83203125 C30.26873308 16.6503428 28.5614425 18.46000868 26.84375 20.26171875 C25.01782213 22.18473556 25.01782213 22.18473556 23 25 C23.48313926 29.52056559 26.58979572 32.30782981 29.5 35.5625 C30.5894169 36.80782864 31.67794834 38.05393239 32.765625 39.30078125 C33.30896484 39.92033691 33.85230469 40.53989258 34.41210938 41.17822266 C36.73037179 43.83795115 38.99720396 46.53444809 41.25 49.25 C41.97703125 50.12140625 42.7040625 50.9928125 43.453125 51.890625 C45 54 45 54 45 56 C40.7491416 56.88182701 37.23768325 57.02819072 33 56 C28.70914081 52.97429645 25.49146789 48.69285023 22.26855469 44.59863281 C20.67767451 42.59380536 18.96833385 40.70831434 17.25 38.8125 C15 36 15 36 15 34 C11.83096637 35.60672068 11.83096637 35.60672068 11.56762695 38.06298828 C11.54144287 38.89040527 11.51525879 39.71782227 11.48828125 40.5703125 C11.45283203 41.46621094 11.41738281 42.36210937 11.38085938 43.28515625 C11.34702148 44.69087891 11.34702148 44.69087891 11.3125 46.125 C11.27833984 47.06988281 11.24417969 48.01476562 11.20898438 48.98828125 C11.12636961 51.32509883 11.06151232 53.66253175 11 56 C7.37 56 3.74 56 0 56 C0 37.52 0 19.04 0 0 Z " fill="#FFFBFB" transform="translate(275,148)"/>
<path d="M0 0 C12.21 0 24.42 0 37 0 C37 2.97 37 5.94 37 9 C28.09 9 19.18 9 10 9 C10 13.29 10 17.58 10 22 C19.24 22 28.48 22 38 22 C38 25.3 38 28.6 38 32 C28.76 32 19.52 32 10 32 C10 36.95 10 41.9 10 47 C18.91 47 27.82 47 37 47 C37 49.97 37 52.94 37 56 C24.79 56 12.58 56 0 56 C0 37.52 0 19.04 0 0 Z " fill="#FFFBFA" transform="translate(324,148)"/>
<path d="M0 0 C3.18049935 2.70680795 5.41888899 5.11909115 7 9 C0.66774194 13.01854839 0.66774194 13.01854839 -2.25 12.9375 C-4.22223527 11.88094539 -5.4583186 10.60871103 -7 9 C-13.07976974 6.97341009 -19.8075567 6.92301031 -25.5625 9.75 C-29.90490909 13.75837762 -31.68180398 16.64068462 -32.23828125 22.515625 C-32.4120382 28.91719673 -31.90699601 33.77838583 -28 39 C-24.21991893 42.78008107 -21.10423098 43.27901132 -15.9375 43.4375 C-11.39070261 43.43164827 -8.67011211 42.73659927 -5 40 C-3.17370206 36.93319201 -3.17370206 36.93319201 -2 34 C1.11198065 35.49836105 4.0534615 37.19933758 7 39 C3.60039348 45.79921305 -2.10443316 50.06409608 -9 53 C-18.76589841 54.52518268 -26.9628842 52.74953489 -35 47 C-37.53817762 44.55731817 -39.32066316 42.08762282 -41 39 C-41.33644531 38.40703125 -41.67289063 37.8140625 -42.01953125 37.203125 C-45.24215392 30.31642451 -45.19600176 21.59480903 -43.30859375 14.34375 C-40.01722406 6.30123996 -34.81498271 0.69435546 -27 -3 C-17.80969828 -5.3014369 -8.10596082 -5.22910625 0 0 Z " fill="#FFFAF9" transform="translate(265,150)"/>
<path d="M0 0 C14.19 0 28.38 0 43 0 C43 2.97 43 5.94 43 9 C37.39 9 31.78 9 26 9 C26 24.51 26 40.02 26 56 C22.7 56 19.4 56 16 56 C16 40.49 16 24.98 16 9 C10.72 9 5.44 9 0 9 C0 6.03 0 3.06 0 0 Z " fill="#FFFFFF" transform="translate(156,148)"/>
<path d="M0 0 C14.19 0 28.38 0 43 0 C43 2.97 43 5.94 43 9 C37.39 9 31.78 9 26 9 C26 24.51 26 40.02 26 56 C23.03 56 20.06 56 17 56 C17 40.49 17 24.98 17 9 C11.39 9 5.78 9 0 9 C0 6.03 0 3.06 0 0 Z " fill="#FFFFFF" transform="translate(366,148)"/>
<path d="M0 0 C14.52 0 29.04 0 44 0 C49 11 49 11 49 14 C34.48 14 19.96 14 5 14 C0 2 0 2 0 0 Z " fill="#E96852" transform="translate(101,301)"/>
<path d="M0 0 C3.3 0 6.6 0 10 0 C10 18.48 10 36.96 10 56 C6.7 56 3.4 56 0 56 C0 37.52 0 19.04 0 0 Z " fill="#FFFFFF" transform="translate(204,148)"/>
<path d="M0 0 C-20.22439706 15.82488695 -42.72644966 15.42002851 -67 14 C-49.90051366 -3.09948634 -21.93638503 -1.41501657 0 0 Z " fill="#E9BB55" transform="translate(360,301)"/>
<path d="M0 0 C3.63 0 7.26 0 11 0 C12.82077574 4.05884054 14.63015864 8.12266162 16.4375 12.1875 C16.95376953 13.33798828 17.47003906 14.48847656 18.00195312 15.67382812 C18.49501953 16.78564453 18.98808594 17.89746094 19.49609375 19.04296875 C19.95169678 20.06414795 20.4072998 21.08532715 20.87670898 22.13745117 C21.91218389 24.77621302 22.54937064 27.20878827 23 30 C18.545 31.485 18.545 31.485 14 33 C10.46056906 26.10619418 7.22572969 19.12795984 4.1875 12 C3.57745117 10.59041016 3.57745117 10.59041016 2.95507812 9.15234375 C2.57158203 8.25644531 2.18808594 7.36054688 1.79296875 6.4375 C1.4477417 5.63183594 1.10251465 4.82617188 0.74682617 3.99609375 C0 2 0 2 0 0 Z " fill="#FEFBFA" transform="translate(145,301)"/>
<path d="M0 0 C7.59 0 15.18 0 23 0 C28 11.75 28 11.75 28 14 C20.41 14 12.82 14 5 14 C0 2.25 0 2.25 0 0 Z " fill="#E96953" transform="translate(156,301)"/>
<path d="M0 0 C3.63 0 7.26 0 11 0 C18.08318336 13.97996715 18.08318336 13.97996715 17.83349609 17.04174805 C17 19 17 19 14.93359375 20.046875 C14.10988281 20.27890625 13.28617188 20.5109375 12.4375 20.75 C11.61121094 20.99234375 10.78492188 21.2346875 9.93359375 21.484375 C9.29550781 21.65453125 8.65742188 21.8246875 8 22 C6.65791246 18.89954577 5.32786246 15.79407011 4 12.6875 C3.6184375 11.80642578 3.236875 10.92535156 2.84375 10.01757812 C2.4828125 9.17001953 2.121875 8.32246094 1.75 7.44921875 C1.41484375 6.66893311 1.0796875 5.88864746 0.734375 5.0847168 C0 3 0 3 0 0 Z " fill="#E9E1E0" transform="translate(179,301)"/>
<path d="M0 0 C4.95 0 9.9 0 15 0 C20 11.75 20 11.75 20 14 C15.38 14 10.76 14 6 14 C0 2.25 0 2.25 0 0 Z " fill="#E9BB55" transform="translate(86,301)"/>
<path d="M0 0 C12.21 0 24.42 0 37 0 C31.57929769 5.42070231 26.08336551 7.25989569 18.4375 7.4375 C10.44881614 7.16685534 5.7990623 5.7990623 0 0 Z " fill="#EADBD8" transform="translate(200,301)"/>
<path d="M0 0 C3.63 0 7.26 0 11 0 C11.84026396 1.76755526 12.67198722 3.53917263 13.5 5.3125 C13.9640625 6.29863281 14.428125 7.28476562 14.90625 8.30078125 C16 11 16 11 16 14 C12.7 14 9.4 14 6 14 C4.99515796 12.04414675 3.99626195 10.08523763 3 8.125 C2.1646875 6.48917969 2.1646875 6.48917969 1.3125 4.8203125 C0 2 0 2 0 0 Z " fill="#E9E2E0" transform="translate(145,301)"/>
<path d="M0 0 C3.63 0 7.26 0 11 0 C11.33 1.32 11.66 2.64 12 4 C10.71086513 4.67154933 9.41859796 5.33708859 8.125 6 C7.40570313 6.37125 6.68640625 6.7425 5.9453125 7.125 C4 8 4 8 2 8 C0.74335022 5.09399739 0 3.20395416 0 0 Z " fill="#FEF7F6" transform="translate(185,315)"/>
</svg>
